<svg width="96" height="90" viewBox="0 0 96 90" fill="none" xmlns="http://www.w3.org/2000/svg">
<path d="M11.4004 33.8C11.8004 33 12.4004 32.4 13.1004 31.9C13.4004 31.7 13.6004 31.6 13.9004 31.4L11.7004 41.3C11.3004 43.2 11.7004 45.3 12.8004 46.9C13.8004 48.4 15.5004 49.5 17.3004 49.9L12.2004 73.1999L21.5004 70.5999L25.6004 51.3L30.6004 52.0999L32.9004 61.8L33.4004 61.1999C34.4004 59.9999 35.7004 59.0999 37.2004 58.5999L40.7004 57.5L38.8004 49.3C38.1004 46.4 35.8004 44.2 32.9004 43.8L27.5004 42.9L29.5004 33.5C29.7004 33.8 29.9004 34 30.1004 34.3C31.5004 36.3 33.7004 37.7 36.2004 38L43.7004 39C44.5004 39.1 45.3004 38.9 46.0004 38.6C47.0004 38 47.7004 37.1 47.9004 35.8C48.2004 33.8 46.8004 31.9 44.7004 31.6L37.2004 30.6C36.8004 30.5 36.4004 30.3 36.2004 30C29.8004 20.9 28.5004 20.4 26.6004 20.3L20.5004 20C19.3004 19.9 18.2004 19.9 9.10041 25.4C7.20041 26.5 5.60041 28.2 4.60041 30.2L0.900405 38C0.000405401 39.8 0.700405 42 2.50041 43C4.30041 43.9 6.60041 43.2 7.50041 41.4L11.4004 33.8Z" fill="black"/>
<path d="M33.0851 11.0305C33.5255 6.52306 30.2284 2.51207 25.721 2.07171C21.2135 1.63135 17.2025 4.92838 16.7622 9.43583C16.3218 13.9433 19.6189 17.9543 24.1263 18.3946C28.6338 18.835 32.6447 15.538 33.0851 11.0305Z" fill="black"/>
<path d="M95.3006 84.7L87.7006 61.4C87.6006 61.1 87.5006 60.8 87.3006 60.5L73.8006 40.1C73.6006 39.7 73.3006 39.5 72.9006 39.2V2.79998C72.9006 1.59998 71.9006 0.599976 70.7006 0.599976C69.5006 0.599976 68.5006 1.59998 68.5006 2.79998V3.99998H55.0006C53.8006 3.99998 52.9006 4.89998 52.9006 6.09998V17.1C52.9006 18.3 53.8006 19.2 55.0006 19.2H68.6006V39.3C68.3006 39.5 68.1006 39.7 67.9006 40L55.6006 56.9C55.1006 57.5 54.5006 58 53.7006 58.2L38.5006 62.9C37.8006 63.1 37.2006 63.5 36.7006 64.1L30.4006 72C29.9006 72.6 29.3006 73 28.6006 73.2L12.1006 77.8C11.1006 78.1 10.3006 78.8 9.80058 79.7L7.60058 84.3C6.40058 86.7 8.20058 89.5 10.8006 89.5H91.9006C94.3006 89.4 96.1006 87 95.3006 84.7Z" fill="black"/>
</svg>
