<svg width="94" height="96" viewBox="0 0 94 96" fill="none" xmlns="http://www.w3.org/2000/svg">
<path d="M26.7004 50.8999C23.2004 50.8999 20.4004 53.6999 20.4004 57.1999C20.4004 57.4999 20.4004 57.6999 20.4004 57.8999C20.5004 58.8999 21.4004 59.4999 22.4004 59.3999C23.4004 59.2999 24.0004 58.3999 23.9004 57.3999C23.9004 57.2999 23.9004 57.1999 23.9004 57.0999C23.9004 55.4999 25.2004 54.2999 26.7004 54.2999C28.3004 54.2999 29.5004 55.5999 29.5004 57.0999C29.5004 57.1999 29.5004 57.2999 29.5004 57.3999C29.4004 58.3999 30.1004 59.1999 31.0004 59.3999C31.1004 59.3999 31.2004 59.3999 31.2004 59.3999C32.1004 59.3999 32.8004 58.7999 32.9004 57.8999C32.9004 57.6999 32.9004 57.3999 32.9004 57.1999C33.0004 53.7999 30.2004 50.8999 26.7004 50.8999Z" fill="black"/>
<path d="M70.9004 47.5999C70.0004 47.1999 69.0004 47.5999 68.6004 48.4999C68.2004 49.3999 68.6004 50.3999 69.5004 50.7999C74.1004 52.7999 77.1004 55.7999 77.5004 58.8999C77.6004 59.7999 78.4004 60.3999 79.2004 60.3999C79.3004 60.3999 79.4004 60.3999 79.4004 60.3999C80.4004 60.2999 81.0004 59.3999 80.9004 58.3999C80.4004 54.0999 76.8004 50.0999 70.9004 47.5999Z" fill="black"/>
<path d="M92.8008 46.9C91.9008 46.5 90.9008 46.9 90.5008 47.8C89.0008 51.1 85.6008 50.9 85.4008 50.9C85.3008 50.9 85.2008 50.9 85.1008 50.9C83.3008 48.4 80.8008 46 77.7008 43.9C82.4008 39.1 85.0008 32.7 85.0008 25.9C84.9008 11.6 73.3008 0 59.0008 0C44.7008 0 33.1008 11.6 33.1008 25.9C33.1008 29.5 33.9008 33 35.3008 36.3C35.1008 36.3 34.9008 36.4 34.7008 36.4L29.1008 30.8C28.6008 30.3 28.0008 30 27.3008 30C26.5008 30 25.8008 30.4 25.3008 31C24.8008 31.6 24.6008 32.4 24.8008 33.2C25.2008 35.1 25.5008 37.8 24.5008 39.8C16.8008 43.3 11.3008 48.4 8.80078 54.4H7.20078C3.40078 54.4 0.300781 57.5 0.300781 61.3V66.3C0.300781 69.6 2.80078 74.8 6.70078 75.3H6.80078C7.00078 75.3 7.30078 75.4 7.50078 75.4L11.6008 76.3C14.6008 80.3 19.2008 83.9 24.6008 86.6V92C24.6008 94.2 26.4008 96 28.6008 96H36.0008C38.2008 96 40.0008 94.2 40.0008 92V91.1C42.1008 91.4 44.2008 91.5 46.3008 91.5C49.8008 91.5 53.1008 91.3 56.2008 90.9V92C56.2008 94.2 58.0008 96 60.2008 96H67.7008C69.9008 96 71.7008 94.2 71.7008 92V86.7C84.2008 80.7 90.0008 71.1 88.5008 59C88.3008 57.4 87.8008 55.8 87.1008 54.2C89.1008 53.9 92.0008 52.7 93.7008 49.2C94.1008 48.3 93.7008 47.3 92.8008 46.9ZM36.6008 25.9C36.6008 13.5 46.6008 3.5 59.0008 3.5C71.4008 3.5 81.4008 13.5 81.4008 25.9C81.4008 32 79.0008 37.8 74.6008 42L74.5008 41.9C66.6008 37.6 56.6008 35.2 46.3008 35.2C43.8008 35.2 41.3008 35.4 38.9008 35.7C37.4008 32.7 36.6008 29.3 36.6008 25.9ZM69.3008 83.9L68.3008 84.4V92C68.3008 92.3 68.1008 92.5 67.8008 92.5H60.3008C60.0008 92.5 59.8008 92.3 59.8008 92V86.9L57.8008 87.2C54.3008 87.7 50.5008 88 46.4008 88C43.8008 88 41.2008 87.8 38.6008 87.4L36.6008 87.1V92.1C36.6008 92.4 36.4008 92.6 36.1008 92.6H28.6008C28.3008 92.6 28.1008 92.4 28.1008 92.1V84.4L27.1008 83.9C21.6008 81.4 16.9008 77.8 14.1008 73.8L13.7008 73.3L8.30078 72.1H8.20078C7.90078 72 7.50078 72 7.20078 72H7.10078C5.60078 71.8 3.80078 68.8 3.80078 66.5V61.5C3.80078 59.6 5.30078 58.1 7.20078 58.1H11.3008L11.7008 56.9C13.6008 51.3 18.9008 46.2 26.4008 43L26.9008 42.8L27.2008 42.3C28.5008 40.2 28.8008 37.8 28.6008 35.5L33.6008 40.5L34.5008 40.3C38.3008 39.4 42.3008 39 46.3008 39C56.0008 39 65.4008 41.2 72.8008 45.2C80.0008 49.1 84.3008 54.3 85.0008 59.7C86.4008 70.4 81.1008 78.6 69.3008 83.9Z" fill="black"/>
<path d="M53.4006 30.5999C54.3006 31.0999 55.6006 31.4 57.0006 31.5C57.4006 31.5 57.7006 31.8999 57.7006 32.2999V34.0999C57.7006 34.4999 58.0006 34.9 58.5006 34.9H59.4006C59.8006 34.9 60.2006 34.5999 60.2006 34.0999V32C60.2006 31.6 60.5006 31.3 60.8006 31.2C63.7006 30.5 65.2006 28.4 65.2006 26C65.2006 23.4 63.7006 21.8 60.4006 20.5C57.9006 19.5 56.8006 18.8 56.8006 17.6C56.8006 16.6 57.5006 15.5 59.6006 15.5C61.0006 15.5 62.1006 15.8 62.9006 16.2C63.3006 16.4 63.8006 16.2 63.9006 15.7L64.3006 14.5C64.4006 14.1 64.2006 13.7 63.9006 13.6C63.3006 13.3 62.5006 13.1 61.6006 13C61.0006 12.9 60.5006 12.3 60.5006 11.7V10.5C60.5006 10.1 60.2006 9.69995 59.7006 9.69995H58.8006C58.4006 9.69995 58.0006 9.99995 58.0006 10.5V12.5C58.0006 12.9 57.8006 13.2 57.4006 13.2C54.8006 13.9 53.2006 15.7 53.2006 18.1C53.2006 20.9 55.2006 22.3 58.3006 23.4C60.5006 24.2 61.5006 25.1 61.5006 26.4C61.5006 27.8 60.2006 28.7 58.3006 28.7C56.9006 28.7 55.5006 28.2999 54.5006 27.7999C54.1006 27.5999 53.6006 27.7999 53.4006 28.2999L53.0006 29.7C52.9006 30 53.1006 30.3999 53.4006 30.5999Z" fill="black"/>
</svg>
