<svg width="20" height="18" viewBox="0 0 20 18" fill="none" xmlns="http://www.w3.org/2000/svg">
<g clip-path="url(#clip0_103_38)">
<path d="M19 8.00003H7.816C7.61235 7.41548 7.23185 6.9088 6.72725 6.55026C6.22266 6.19172 5.619 5.99908 5 5.99908C4.381 5.99908 3.77734 6.19172 3.27275 6.55026C2.76815 6.9088 2.38765 7.41548 2.184 8.00003H1C0.734784 8.00003 0.48043 8.10539 0.292893 8.29292C0.105357 8.48046 0 8.73481 0 9.00003C0 9.26525 0.105357 9.5196 0.292893 9.70714C0.48043 9.89467 0.734784 10 1 10H2.184C2.38765 10.5846 2.76815 11.0913 3.27275 11.4498C3.77734 11.8083 4.381 12.001 5 12.001C5.619 12.001 6.22266 11.8083 6.72725 11.4498C7.23185 11.0913 7.61235 10.5846 7.816 10H19C19.2652 10 19.5196 9.89467 19.7071 9.70714C19.8946 9.5196 20 9.26525 20 9.00003C20 8.73481 19.8946 8.48046 19.7071 8.29292C19.5196 8.10539 19.2652 8.00003 19 8.00003ZM5 10C4.80222 10 4.60888 9.94138 4.44443 9.8315C4.27998 9.72162 4.15181 9.56544 4.07612 9.38271C4.00043 9.19999 3.98063 8.99892 4.01921 8.80494C4.0578 8.61096 4.15304 8.43278 4.29289 8.29292C4.43275 8.15307 4.61093 8.05783 4.80491 8.01924C4.99889 7.98066 5.19996 8.00046 5.38268 8.07615C5.56541 8.15184 5.72159 8.28001 5.83147 8.44446C5.94135 8.60891 6 8.80225 6 9.00003C6 9.26525 5.89464 9.5196 5.70711 9.70714C5.51957 9.89467 5.26522 10 5 10Z" fill="black"/>
<path d="M1 4.00003H12.184C12.3876 4.58457 12.7682 5.09126 13.2727 5.4498C13.7773 5.80834 14.381 6.00098 15 6.00098C15.619 6.00098 16.2227 5.80834 16.7273 5.4498C17.2318 5.09126 17.6124 4.58457 17.816 4.00003H19C19.2652 4.00003 19.5196 3.89467 19.7071 3.70714C19.8946 3.5196 20 3.26525 20 3.00003C20 2.73481 19.8946 2.48046 19.7071 2.29292C19.5196 2.10539 19.2652 2.00003 19 2.00003H17.816C17.6124 1.41549 17.2318 0.908802 16.7273 0.550259C16.2227 0.191715 15.619 -0.000915527 15 -0.000915527C14.381 -0.000915527 13.7773 0.191715 13.2727 0.550259C12.7682 0.908802 12.3876 1.41549 12.184 2.00003H1C0.734784 2.00003 0.48043 2.10539 0.292893 2.29292C0.105357 2.48046 0 2.73481 0 3.00003C0 3.26525 0.105357 3.5196 0.292893 3.70714C0.48043 3.89467 0.734784 4.00003 1 4.00003V4.00003ZM15 2.00003C15.1978 2.00003 15.3911 2.05868 15.5556 2.16856C15.72 2.27844 15.8482 2.43462 15.9239 2.61735C15.9996 2.80007 16.0194 3.00114 15.9808 3.19512C15.9422 3.3891 15.847 3.56728 15.7071 3.70714C15.5673 3.84699 15.3891 3.94223 15.1951 3.98082C15.0011 4.0194 14.8 3.9996 14.6173 3.92391C14.4346 3.84822 14.2784 3.72005 14.1685 3.5556C14.0586 3.39115 14 3.19781 14 3.00003C14 2.73481 14.1054 2.48046 14.2929 2.29292C14.4804 2.10539 14.7348 2.00003 15 2.00003V2.00003Z" fill="black"/>
<path d="M19 14H15.816C15.6124 13.4155 15.2318 12.9088 14.7273 12.5503C14.2227 12.1917 13.619 11.9991 13 11.9991C12.381 11.9991 11.7773 12.1917 11.2727 12.5503C10.7682 12.9088 10.3876 13.4155 10.184 14H1C0.734784 14 0.48043 14.1054 0.292893 14.2929C0.105357 14.4805 0 14.7348 0 15C0 15.2652 0.105357 15.5196 0.292893 15.7071C0.48043 15.8947 0.734784 16 1 16H10.184C10.3876 16.5846 10.7682 17.0913 11.2727 17.4498C11.7773 17.8083 12.381 18.001 13 18.001C13.619 18.001 14.2227 17.8083 14.7273 17.4498C15.2318 17.0913 15.6124 16.5846 15.816 16H19C19.2652 16 19.5196 15.8947 19.7071 15.7071C19.8946 15.5196 20 15.2652 20 15C20 14.7348 19.8946 14.4805 19.7071 14.2929C19.5196 14.1054 19.2652 14 19 14ZM13 16C12.8022 16 12.6089 15.9414 12.4444 15.8315C12.28 15.7216 12.1518 15.5654 12.0761 15.3827C12.0004 15.2 11.9806 14.9989 12.0192 14.8049C12.0578 14.611 12.153 14.4328 12.2929 14.2929C12.4327 14.1531 12.6109 14.0578 12.8049 14.0192C12.9989 13.9807 13.2 14.0005 13.3827 14.0761C13.5654 14.1518 13.7216 14.28 13.8315 14.4445C13.9414 14.6089 14 14.8022 14 15C14 15.2652 13.8946 15.5196 13.7071 15.7071C13.5196 15.8947 13.2652 16 13 16Z" fill="black"/>
</g>
<defs>
<clipPath id="clip0_103_38">
<rect width="20" height="18" fill="white"/>
</clipPath>
</defs>
</svg>
