<svg width="96" height="96" viewBox="0 0 96 96" fill="none" xmlns="http://www.w3.org/2000/svg">
<path d="M47.9992 95.8799C38.5294 95.8799 29.2723 93.0718 21.3985 87.8107C13.5246 82.5495 7.38773 75.0717 3.76381 66.3228C0.139886 57.5739 -0.808297 47.9468 1.03916 38.659C2.88662 29.3712 7.44675 20.8398 14.1429 14.1436C20.839 7.44748 29.3704 2.88736 38.6582 1.0399C47.946 -0.807565 57.5731 0.140619 66.322 3.76454C75.071 7.38847 82.5488 13.5254 87.8099 21.3992C93.0711 29.273 95.8792 38.5301 95.8792 47.9999C95.8659 60.6944 90.8172 72.8652 81.8408 81.8415C72.8644 90.8179 60.6937 95.8667 47.9992 95.8799V95.8799ZM47.9992 6.12989C39.7157 6.12989 31.6182 8.58637 24.7308 13.1886C17.8435 17.7909 12.4756 24.3323 9.30613 31.9854C6.13663 39.6386 5.30785 48.0598 6.92461 56.184C8.54137 64.3082 12.531 71.7704 18.3891 77.6271C24.2471 83.4837 31.7103 87.4716 39.8349 89.0864C47.9595 90.7012 56.3805 89.8704 64.0329 86.6991C71.6853 83.5278 78.2253 78.1583 82.826 71.2699C87.4266 64.3815 89.8811 56.2834 89.8792 47.9999C89.8659 36.8976 85.449 26.254 77.5976 18.4044C69.7461 10.5549 59.1014 6.14048 47.9992 6.12989V6.12989Z" fill="black"/>
<path d="M42.7991 57.91V55.18C42.7884 53.9447 42.9261 52.7126 43.2091 51.51C43.4885 50.3712 43.9189 49.2748 44.4891 48.25C45.1313 47.1152 45.9068 46.061 46.7991 45.1101C47.9253 43.9109 49.1242 42.7821 50.3891 41.73C51.6618 40.6366 52.8241 39.4208 53.8591 38.1C54.699 36.9383 55.1346 35.5332 55.0991 34.1C55.0995 33.2824 54.935 32.4731 54.6154 31.7205C54.2958 30.9679 53.8277 30.2875 53.2391 29.72C52.5687 29.0708 51.7715 28.5669 50.8973 28.24C50.0232 27.913 49.091 27.7701 48.1591 27.8201C46.0819 27.7869 44.0721 28.5572 42.5491 29.97C41.8466 30.6167 41.2494 31.3691 40.7791 32.2001C40.3315 33.0043 39.9951 33.8654 39.7791 34.76L30.2891 30.76C30.772 29.1286 31.4823 27.5734 32.3991 26.14C34.4637 22.8487 37.5519 20.3262 41.1891 18.96C43.3274 18.1601 45.5963 17.7667 47.8791 17.8C50.3371 17.7782 52.7802 18.1843 55.0991 19.0001C57.1805 19.7256 59.1023 20.8461 60.7591 22.3C62.3174 23.6928 63.5674 25.3959 64.4291 27.3C65.8816 30.6023 66.1432 34.3064 65.1691 37.78C64.7935 39.0234 64.2662 40.2157 63.5991 41.3301C62.935 42.4382 62.1611 43.4768 61.2891 44.43C60.4291 45.3767 59.4924 46.32 58.4791 47.26C57.4657 48.2 56.6824 48.9967 56.1291 49.6501C55.548 50.2898 55.0476 50.9984 54.6391 51.76C54.2816 52.4516 54.0192 53.1882 53.8591 53.9501C53.684 54.8189 53.6003 55.7037 53.6091 56.59V57.91H42.7991ZM48.0791 78.2201C47.146 78.2329 46.2203 78.0531 45.36 77.6917C44.4996 77.3304 43.7231 76.7953 43.0791 76.1201C42.403 75.4525 41.87 74.6542 41.5124 73.774C41.1548 72.8938 40.9802 71.95 40.9991 71C40.9856 70.0639 41.16 69.1346 41.5121 68.2671C41.8641 67.3996 42.3866 66.6116 43.0486 65.9496C43.7106 65.2876 44.4987 64.7651 45.3662 64.4131C46.2337 64.061 47.1629 63.8866 48.0991 63.9001C49.0403 63.8919 49.9736 64.0736 50.843 64.4345C51.7125 64.7953 52.5002 65.3278 53.1591 66C53.8339 66.6445 54.3686 67.421 54.7299 68.2813C55.0912 69.1416 55.2714 70.0671 55.2591 71C55.2564 72.9035 54.4991 74.7282 53.1532 76.0742C51.8072 77.4201 49.9825 78.1774 48.0791 78.18V78.2201Z" fill="black"/>
</svg>
