<svg width="26" height="24" viewBox="0 0 26 24" fill="none" xmlns="http://www.w3.org/2000/svg">
<g clip-path="url(#clip0_103_29)">
<path fill-rule="evenodd" clip-rule="evenodd" d="M12.3598 0.23178C12.7307 -0.07726 13.2693 -0.07726 13.6402 0.23178L25.6402 10.2318C26.0645 10.5853 26.1218 11.2159 25.7682 11.6402C25.4147 12.0645 24.7841 12.1218 24.3598 11.7682L23 10.635V23C23 23.5523 22.5523 24 22 24H15H11H3.99999C3.44771 24 2.99999 23.5523 2.99999 23V10.635L1.64018 11.7682C1.2159 12.1218 0.585341 12.0645 0.231771 11.6402C-0.121789 11.2159 -0.0644686 10.5853 0.359811 10.2318L12.3598 0.23178ZM11 22H15V16H11V22ZM17 22V16C17 14.8954 16.1046 14 15 14H11C9.8954 14 9 14.8954 9 16V22H4.99999V9C4.99999 8.9896 4.99983 8.9791 4.99952 8.9688L13 2.30171L21.0005 8.9688C21.0003 8.9749 21.0002 8.9811 21.0001 8.9872C21 8.9915 21 8.9957 21 9V22H17Z" fill="black"/>
</g>
<defs>
<clipPath id="clip0_103_29">
<rect width="26" height="24" fill="white"/>
</clipPath>
</defs>
</svg>
