<svg width="368" height="336" viewBox="0 0 368 336" fill="none" xmlns="http://www.w3.org/2000/svg">
<g clip-path="url(#clip0_332_39)">
<path d="M165 83.3C170 83.3 174 79.3 174 74.3V38.7C174 27.1 183.5 18 195.1 18H329.3C340.9 18 350 27.1 350 38.7V297.3C350 308.9 340.9 318 329.3 318H195.1C183.5 318 174 308.9 174 297.3V262.4C174 257.4 170 253.4 165 253.4C160 253.4 156 257.4 156 262.4V297.3C156 318.8 173.6 336 195.1 336H329.3C350.8 336 368 318.8 368 297.3V38.7C368 17.2 350.8 0 329.3 0H195.1C173.6 0 156 17.2 156 38.7V74.3C156 79.3 160 83.3 165 83.3Z" fill="black"/>
<path d="M3.49922 175.3L68.1992 240C69.9992 241.8 72.2992 242.6 74.5992 242.6C76.8992 242.6 79.1992 241.7 80.9992 240C84.4992 236.5 84.4992 230.8 80.9992 227.3L30.5992 177H269.699C274.699 177 278.699 173 278.699 168C278.699 163 274.699 159 269.699 159H28.5992L81.2992 98.1999C84.5992 94.3999 84.1992 88.7999 80.3992 85.4999C76.5992 82.1999 70.9992 82.5999 67.6992 86.3999L2.99922 161C0.999222 162.7 -0.300781 165.2 -0.300781 168C-0.300781 171 1.19922 173.7 3.49922 175.3Z" fill="black"/>
</g>
<defs>
<clipPath id="clip0_332_39">
<rect width="368" height="336" fill="white"/>
</clipPath>
</defs>
</svg>
