<svg width="32" height="26" viewBox="0 0 32 26" fill="none" xmlns="http://www.w3.org/2000/svg">
<path d="M1.99999 26C1.60299 26 1.24399 25.765 1.08399 25.401C0.924993 25.038 0.995993 24.614 1.26499 24.322L11.22 13.52V1C11.22 0.448 11.668 0 12.22 0C12.225 0 12.23 0 12.234 0H21.241C21.645 0 22.01 0.244 22.165 0.617C22.32 0.992 22.234 1.421 21.948 1.707L19.816 3.84L21.948 5.972C22.234 6.258 22.32 6.688 22.165 7.062C22.01 7.435 21.645 7.679 21.241 7.679H13.22V13.52L16.003 16.537L19.045 13.233C19.235 13.027 19.501 12.911 19.781 12.911C20.06 12.911 20.327 13.027 20.516 13.233L30.736 24.322C31.005 24.614 31.076 25.038 30.916 25.401C30.757 25.765 30.397 26 30 26H1.99999ZM4.28199 24H9.13099L14.641 18.011L12.22 15.386L4.28199 24ZM11.849 24H27.719L19.78 15.386L11.849 24ZM13.22 5.679H18.827L17.695 4.547C17.304 4.156 17.304 3.523 17.695 3.133L18.827 2H13.22V5.679Z" fill="black"/>
</svg>
