<svg width="94" height="94" viewBox="0 0 94 94" fill="none" xmlns="http://www.w3.org/2000/svg">
<path d="M19.4904 58.91H9.40039C9.00257 58.91 8.62104 59.068 8.33973 59.3493C8.05843 59.6306 7.90039 60.0121 7.90039 60.41V70.51C7.90303 70.9061 8.06223 71.285 8.34325 71.5642C8.62427 71.8433 9.00429 72 9.40039 72H19.4904C19.8882 72 20.2697 71.8419 20.5511 71.5606C20.8324 71.2793 20.9904 70.8978 20.9904 70.5V60.41C20.9904 60.0121 20.8324 59.6306 20.5511 59.3493C20.2697 59.068 19.8882 58.91 19.4904 58.91V58.91ZM18.0004 69H10.9004V61.9H18.0004V62L15.1004 64.9L14.4104 64.2C14.1293 63.9175 13.7474 63.7583 13.3489 63.7574C12.9504 63.7564 12.5678 63.9138 12.2854 64.195C12.0029 64.4761 11.8437 64.8579 11.8428 65.2564C11.8419 65.655 11.9993 66.0375 12.2804 66.32L14.0004 68.08C14.2833 68.3615 14.6663 68.5195 15.0654 68.5195C15.4645 68.5195 15.8474 68.3615 16.1304 68.08L18.0004 66.25V69Z" fill="black"/>
<path d="M19.4904 20H9.40039C9.00257 20 8.62104 20.158 8.33973 20.4393C8.05843 20.7206 7.90039 21.1022 7.90039 21.5V31.6C7.90039 31.9978 8.05843 32.3794 8.33973 32.6607C8.62104 32.942 9.00257 33.1 9.40039 33.1H19.4904C19.8882 33.1 20.2697 32.942 20.5511 32.6607C20.8324 32.3794 20.9904 31.9978 20.9904 31.6V21.49C20.9878 21.0939 20.8285 20.7149 20.5475 20.4358C20.2665 20.1567 19.8865 20 19.4904 20V20ZM18.0004 30.09H10.9004V23H18.0004V23.09L15.0904 26L14.4004 25.3C14.2605 25.1608 14.0946 25.0505 13.9121 24.9754C13.7297 24.9003 13.5342 24.8619 13.3369 24.8624C13.1395 24.8629 12.9442 24.9022 12.7621 24.9781C12.58 25.0541 12.4146 25.1651 12.2754 25.305C11.9943 25.5875 11.8369 25.97 11.8378 26.3685C11.8383 26.5659 11.8776 26.7612 11.9535 26.9433C12.0295 27.1254 12.1405 27.2908 12.2804 27.43L14.0004 29.16C14.2833 29.4415 14.6663 29.5995 15.0654 29.5995C15.4645 29.5995 15.8474 29.4415 16.1304 29.16L18.0004 27.33V30.09Z" fill="black"/>
<path d="M26.4404 30.48H39.3404C39.7383 30.48 40.1198 30.3219 40.4011 30.0406C40.6824 29.7593 40.8404 29.3778 40.8404 28.98C40.8404 28.5822 40.6824 28.2006 40.4011 27.9193C40.1198 27.638 39.7383 27.48 39.3404 27.48H26.4404C26.0426 27.48 25.6611 27.638 25.3798 27.9193C25.0985 28.2006 24.9404 28.5822 24.9404 28.98C24.9404 29.3778 25.0985 29.7593 25.3798 30.0406C25.6611 30.3219 26.0426 30.48 26.4404 30.48V30.48Z" fill="black"/>
<path d="M26.4404 25.6H48.5704C48.9683 25.6 49.3498 25.4419 49.6311 25.1606C49.9124 24.8793 50.0704 24.4978 50.0704 24.1C50.0704 23.7022 49.9124 23.3206 49.6311 23.0393C49.3498 22.758 48.9683 22.6 48.5704 22.6H26.4404C26.0426 22.6 25.6611 22.758 25.3798 23.0393C25.0985 23.3206 24.9404 23.7022 24.9404 24.1C24.9404 24.4978 25.0985 24.8793 25.3798 25.1606C25.6611 25.4419 26.0426 25.6 26.4404 25.6V25.6Z" fill="black"/>
<path d="M19.4902 39.45H9.40025C9.19899 39.4499 8.99976 39.4903 8.81443 39.5688C8.62911 39.6473 8.46147 39.7623 8.32151 39.9069C8.18155 40.0515 8.07212 40.2228 7.99975 40.4106C7.92738 40.5984 7.89354 40.7989 7.90025 41V51.1C7.90025 51.4978 8.05828 51.8794 8.33959 52.1607C8.62089 52.442 9.00242 52.6 9.40025 52.6H19.4902C19.8881 52.6 20.2696 52.442 20.5509 52.1607C20.8322 51.8794 20.9902 51.4978 20.9902 51.1V41C20.997 40.7989 20.9631 40.5984 20.8907 40.4106C20.8184 40.2228 20.7089 40.0515 20.569 39.9069C20.429 39.7623 20.2614 39.6473 20.0761 39.5688C19.8907 39.4903 19.6915 39.4499 19.4902 39.45ZM18.0002 49.55H10.9002V42.45H18.0002V42.54L15.1002 45.44L14.4102 44.74C14.1277 44.4615 13.747 44.3054 13.3502 44.3054C12.9535 44.3054 12.5728 44.4615 12.2902 44.74C12.15 44.8786 12.0386 45.0437 11.9626 45.2256C11.8865 45.4076 11.8474 45.6028 11.8474 45.8C11.8474 45.9972 11.8865 46.1925 11.9626 46.3744C12.0386 46.5564 12.15 46.7214 12.2902 46.86L14.0002 48.62C14.2832 48.9015 14.6661 49.0596 15.0652 49.0596C15.4644 49.0596 15.8473 48.9015 16.1302 48.62L18.0002 46.79V49.55Z" fill="black"/>
<path d="M92 33.48H91L93.09 31.4C93.355 31.1156 93.4992 30.7395 93.4923 30.3509C93.4855 29.9623 93.3281 29.5916 93.0532 29.3167C92.7784 29.0419 92.4076 28.8845 92.019 28.8776C91.6304 28.8708 91.2544 29.015 90.97 29.28L88.88 31.36V30.36C88.88 29.9622 88.722 29.5806 88.4407 29.2993C88.1594 29.018 87.7778 28.86 87.38 28.86C86.9822 28.86 86.6006 29.018 86.3193 29.2993C86.038 29.5806 85.88 29.9622 85.88 30.36V34.36L82.21 38C76.3502 32.6331 68.6861 29.6666 60.74 29.69C59.6478 29.691 58.5564 29.7477 57.47 29.86V10.25C57.47 9.85217 57.312 9.47064 57.0307 9.18933C56.7494 8.90803 56.3678 8.74999 55.97 8.74999H42.67V5.99999C42.67 5.60217 42.512 5.22064 42.2307 4.93933C41.9494 4.65803 41.5678 4.49999 41.17 4.49999H34.25C33.9204 3.35832 33.2287 2.35472 32.279 1.64044C31.3294 0.926164 30.1733 0.539917 28.985 0.539917C27.7967 0.539917 26.6406 0.926164 25.691 1.64044C24.7413 2.35472 24.0496 3.35832 23.72 4.49999H16.79C16.3922 4.49999 16.0106 4.65803 15.7293 4.93933C15.448 5.22064 15.29 5.60217 15.29 5.99999V8.74999H2C1.60218 8.74999 1.22064 8.90803 0.93934 9.18933C0.658035 9.47064 0.5 9.85217 0.5 10.25V81.75C0.5 82.1478 0.658035 82.5293 0.93934 82.8107C1.22064 83.092 1.60218 83.25 2 83.25H37.34C42.6351 88.9632 49.8377 92.5415 57.5893 93.3101C65.341 94.0786 73.106 91.9842 79.4198 87.422C85.7337 82.8597 90.16 76.1449 91.864 68.5439C93.568 60.9429 92.4319 52.9811 88.67 46.16C88.4782 45.8215 88.1624 45.5707 87.7893 45.4606C87.4161 45.3506 87.0148 45.3898 86.67 45.57L86.5 45.69C86.1972 45.8943 85.9793 46.202 85.8872 46.5555C85.7952 46.909 85.8353 47.284 86 47.61C87.9911 51.1781 89.2029 55.1278 89.5555 59.1986C89.9081 63.2694 89.3934 67.3687 88.0456 71.226C86.6977 75.0833 84.5471 78.6109 81.7359 81.5762C78.9246 84.5414 75.5166 86.8768 71.7365 88.4282C67.9565 89.9797 63.8905 90.7119 59.8067 90.5767C55.7229 90.4414 51.7142 89.4418 48.0451 87.6436C44.376 85.8454 41.1299 83.2897 38.521 80.145C35.9121 77.0002 33.9997 73.338 32.91 69.4C32.6349 68.4123 32.4113 67.4109 32.24 66.4C32.14 65.78 32.05 65.15 31.98 64.52C31.89 63.52 31.84 62.58 31.84 61.59V61.52C31.8458 57.5309 32.6836 53.5869 34.3 49.94C34.7552 48.9112 35.2693 47.9095 35.84 46.94C36.22 46.3 36.63 45.67 37.05 45.06C41.1962 39.1297 47.4095 34.9637 54.47 33.38C55.47 33.17 56.47 33 57.47 32.88C58.5556 32.7558 59.6473 32.6923 60.74 32.69C67.8902 32.6707 74.7903 35.3202 80.09 40.12L75.81 44.41C71.6521 40.732 66.2912 38.7043 60.74 38.71C59.6457 38.7138 58.5531 38.794 57.47 38.95C54.4033 39.4047 51.4588 40.469 48.81 42.08C47.4214 42.9415 46.1276 43.9471 44.95 45.08C42.7172 47.202 40.9377 49.7547 39.7191 52.5838C38.5005 55.4129 37.8681 58.4596 37.86 61.54V61.61C37.8622 62.5897 37.9257 63.5682 38.05 64.54C38.13 65.17 38.24 65.8 38.37 66.42C39.5564 71.9445 42.7451 76.8346 47.3218 80.1484C51.8986 83.4622 57.5397 84.9652 63.1585 84.3679C68.7773 83.7706 73.9764 81.1153 77.7542 76.9135C81.5321 72.7116 83.6215 67.2605 83.62 61.61C83.6277 58.5522 83.0154 55.5245 81.82 52.71C81.7437 52.5241 81.6309 52.3555 81.4882 52.214C81.3455 52.0726 81.1759 51.9613 80.9893 51.8866C80.8028 51.812 80.6032 51.7756 80.4023 51.7796C80.2014 51.7837 80.0034 51.828 79.82 51.91L79.6 52C79.3131 52.1963 79.1027 52.4855 79.0043 52.8189C78.906 53.1523 78.9256 53.5094 79.06 53.83C80.0967 56.2749 80.6274 58.9044 80.62 61.56C80.6227 66.837 78.5303 71.8992 74.8026 75.6344C71.075 79.3695 66.017 81.472 60.74 81.48C59.6435 81.4722 58.5496 81.3718 57.47 81.18C53.3294 80.4929 49.5136 78.5096 46.5719 75.5158C43.6302 72.522 41.7143 68.672 41.1 64.52C40.9489 63.5504 40.8687 62.5712 40.86 61.59V61.52C40.859 56.8237 42.5299 52.2804 45.5733 48.7037C48.6168 45.1271 52.8341 42.7506 57.47 42C58.5496 41.8082 59.6435 41.7078 60.74 41.7C65.4967 41.6922 70.0959 43.4041 73.69 46.52L68.87 51.34C67.2902 50.0756 65.4361 49.1989 63.4564 48.7804C61.4766 48.3619 59.4264 48.4131 57.47 48.93C56.4258 49.2001 55.4184 49.5964 54.47 50.11C52.4206 51.2293 50.7083 52.8768 49.5107 54.8815C48.3132 56.8862 47.6742 59.1749 47.66 61.51V61.58C47.6596 62.5698 47.7737 63.5564 48 64.52C48.4144 66.3209 49.2051 68.0137 50.3202 69.4873C51.4353 70.9608 52.8495 72.1818 54.47 73.07C55.4184 73.5836 56.4258 73.9798 57.47 74.25C59.4036 74.7657 61.4301 74.8281 63.3917 74.4323C65.3533 74.0365 67.1971 73.1931 68.7794 71.968C70.3617 70.7428 71.6397 69.1689 72.514 67.3688C73.3883 65.5687 73.8353 63.5911 73.82 61.59C73.82 61.1922 73.662 60.8106 73.3807 60.5293C73.0994 60.248 72.7178 60.09 72.32 60.09C72.1242 60.0941 71.9309 60.1348 71.75 60.21C71.4761 60.3225 71.2416 60.5136 71.0761 60.7592C70.9106 61.0048 70.8215 61.2939 70.82 61.59C70.82 64.2643 69.7583 66.8292 67.8682 68.7212C65.9782 70.6131 63.4143 71.6773 60.74 71.68C59.6262 71.6796 58.5205 71.4902 57.47 71.12C55.4851 70.439 53.7625 69.1549 52.543 67.4472C51.3235 65.7395 50.6679 63.6935 50.6679 61.595C50.6679 59.4965 51.3235 57.4505 52.543 55.7428C53.7625 54.0351 55.4851 52.751 57.47 52.07C58.5205 51.6998 59.6262 51.5104 60.74 51.51C62.9037 51.51 65.009 52.2118 66.74 53.51L59.74 60.51C59.4575 60.7911 59.2983 61.1729 59.2974 61.5715C59.2965 61.97 59.4539 62.3525 59.735 62.635C60.0161 62.9175 60.3979 63.0767 60.7965 63.0776C61.195 63.0785 61.5775 62.9211 61.86 62.64L76.92 47.54L83.3 41.16L88 36.48H92C92.3978 36.48 92.7794 36.322 93.0607 36.0407C93.342 35.7593 93.5 35.3778 93.5 34.98C93.5 34.5822 93.342 34.2006 93.0607 33.9193C92.7794 33.638 92.3978 33.48 92 33.48ZM18.29 8.74999V7.49999H25C25.1978 7.50131 25.394 7.46348 25.5771 7.38869C25.7602 7.3139 25.9268 7.20362 26.0671 7.0642C26.2075 6.92478 26.3189 6.75898 26.3949 6.57634C26.4709 6.39369 26.51 6.19782 26.51 5.99999C26.55 5.37077 26.8282 4.78042 27.2879 4.34897C27.7477 3.91753 28.3545 3.67739 28.985 3.67739C29.6155 3.67739 30.2223 3.91753 30.6821 4.34897C31.1418 4.78042 31.42 5.37077 31.46 5.99999C31.4599 6.20039 31.5 6.39876 31.5779 6.58341C31.6558 6.76805 31.7698 6.93522 31.9134 7.07505C32.0569 7.21487 32.2271 7.32451 32.4137 7.3975C32.6003 7.47048 32.7997 7.50533 33 7.49999H39.71V11.5H18.29V8.74999ZM3.5 80.25V11.75H15.29V13C15.29 13.3978 15.448 13.7793 15.7293 14.0606C16.0106 14.342 16.3922 14.5 16.79 14.5H41.17C41.5678 14.5 41.9494 14.342 42.2307 14.0606C42.512 13.7793 42.67 13.3978 42.67 13V11.75H54.47V30.31C46.9562 31.8326 40.2387 36.0022 35.54 42.06H26.44C26.0422 42.06 25.6606 42.218 25.3793 42.4993C25.098 42.7806 24.94 43.1622 24.94 43.56C24.94 43.9578 25.098 44.3393 25.3793 44.6207C25.6606 44.902 26.0422 45.06 26.44 45.06H33.44C33.06 45.67 32.72 46.3 32.44 46.94H26.44C26.0422 46.94 25.6606 47.098 25.3793 47.3793C25.098 47.6606 24.94 48.0422 24.94 48.44C24.94 48.8378 25.098 49.2193 25.3793 49.5007C25.6606 49.782 26.0422 49.94 26.44 49.94H31.05C29.5982 53.6286 28.8487 57.556 28.84 61.52H26.44C26.0422 61.52 25.6606 61.678 25.3793 61.9593C25.098 62.2406 24.94 62.6222 24.94 63.02C24.94 63.4178 25.098 63.7993 25.3793 64.0807C25.6606 64.362 26.0422 64.52 26.44 64.52H29C29.05 65.15 29.12 65.78 29.22 66.4H26.44C26.0422 66.4 25.6606 66.558 25.3793 66.8393C25.098 67.1206 24.94 67.5022 24.94 67.9C24.94 68.2978 25.098 68.6794 25.3793 68.9607C25.6606 69.242 26.0422 69.4 26.44 69.4H29.8C30.7952 73.3042 32.5187 76.9854 34.88 80.25H3.5Z" fill="black"/>
</svg>
