<svg width="92" height="72" viewBox="0 0 92 72" fill="none" xmlns="http://www.w3.org/2000/svg">
<path d="M6.60039 69.9C9.90039 71.1 14.4004 71.8 19.0004 71.8C23.6004 71.8 28.1004 71.1 31.4004 69.9C36.5004 68 37.6004 65.4 37.6004 63.6V63.5V55.7V55.6V55.5V47.6V47.5V39.6C37.6004 37.8 36.5004 35.2 31.4004 33.3C28.1004 32.1 23.6004 31.4 19.0004 31.4C14.4004 31.4 9.90039 32.1 6.60039 33.3C1.50039 35.2 0.400391 37.8 0.400391 39.6V39.7V47.5V47.6V47.7V55.5V55.6V55.7V63.5V63.6C0.400391 65.5 1.50039 68 6.60039 69.9ZM4.50039 39.6C4.50039 39.3 5.20039 38.2 8.00039 37.2C10.9004 36.1 14.8004 35.5 19.0004 35.5C23.2004 35.5 27.1004 36.1 30.0004 37.2C32.9004 38.3 33.5004 39.3 33.5004 39.6C33.5004 39.9 32.9004 41 30.0004 42C27.1004 43.1 23.2004 43.7 19.0004 43.7C14.8004 43.7 10.9004 43.1 8.00039 42C5.20039 41 4.50039 40 4.50039 39.6ZM4.50039 45C5.10039 45.3 5.80039 45.6 6.60039 45.9C9.90039 47.1 14.4004 47.8 19.0004 47.8C23.6004 47.8 28.1004 47.1 31.4004 45.9C32.2004 45.6 32.9004 45.3 33.5004 45V47.6C33.5004 47.9 32.9004 49 30.0004 50C27.1004 51.1 23.2004 51.7 19.0004 51.7C14.8004 51.7 10.9004 51.1 8.00039 50C5.20039 49 4.50039 47.9 4.50039 47.6V45ZM4.50039 53C5.10039 53.3 5.80039 53.6 6.60039 53.9C9.90039 55.1 14.4004 55.8 19.0004 55.8C23.6004 55.8 28.1004 55.1 31.4004 53.9C32.2004 53.6 32.9004 53.3 33.5004 53V55.6C33.5004 55.9 32.9004 57 30.0004 58C27.1004 59.1 23.2004 59.7 19.0004 59.7C14.8004 59.7 10.9004 59.1 8.00039 58C5.20039 57 4.50039 55.9 4.50039 55.6V53ZM4.50039 61C5.10039 61.3 5.80039 61.6 6.60039 61.9C9.90039 63.1 14.4004 63.8 19.0004 63.8C23.6004 63.8 28.1004 63.1 31.4004 61.9C32.2004 61.6 32.9004 61.3 33.5004 61V63.6C33.5004 63.9 32.9004 65 30.0004 66C27.1004 67.1 23.2004 67.7 19.0004 67.7C14.8004 67.7 10.9004 67.1 8.00039 66C5.10039 64.9 4.50039 63.9 4.50039 63.6V61ZM69.8004 48.6C69.8004 48.5 69.8004 48.4 69.8004 48.3L70.5004 38.2V38.1C70.6004 37.3 71.3004 36.6 72.2004 36.6C73.1004 36.6 73.8004 37.3 73.9004 38.1L74.5004 47.3C74.5004 47.6 74.6004 47.8 74.8004 48L78.9004 52.9C78.9004 52.9 78.9004 52.9 79.0004 53C79.5004 53.7 79.4004 54.6 78.8004 55.2C78.2004 55.8 77.2004 55.8 76.5004 55.3L70.8004 50.5C70.7004 50.4 70.6004 50.3 70.5004 50.2C70.0004 49.9 69.8004 49.3 69.8004 48.6C69.8004 48.7 69.8004 48.7 69.8004 48.6ZM49.1004 44.3C48.9004 45.6 48.8004 47 48.8004 48.3C48.8004 48.4 48.8004 48.4 48.8004 48.5C47.5004 48.6 46.1004 48.7 44.7004 48.7C43.7004 48.7 42.7004 48.7 41.7004 48.6V47.6C41.7004 47.6 41.7004 47.6 41.7004 47.5V44.4C42.7004 44.5 43.7004 44.5 44.7004 44.5C46.2004 44.5 47.7004 44.4 49.1004 44.3ZM26.0004 24.5V27.8C28.5004 28.2 30.8004 28.7 32.8004 29.5C34.8004 30.2 36.3004 31.1 37.5004 32C39.7004 32.4 42.1004 32.6 44.6004 32.6C49.1004 32.6 53.3004 32 56.6004 30.8C58.5004 29.1 60.8004 27.6 63.2004 26.6V24.5V24.4V24.3V16.4V16.3V8.40001C63.2004 6.60001 62.1004 4.00001 57.0004 2.10001C53.7004 0.900013 49.2004 0.200012 44.6004 0.200012C40.0004 0.200012 35.5004 0.900013 32.2004 2.10001C27.1004 4.00001 26.0004 6.50001 26.0004 8.40001V8.50001V16.3V16.4V16.5V24.3V24.4C26.0004 24.4 26.0004 24.5 26.0004 24.5ZM30.1004 8.30001C30.1004 8.00001 30.8004 6.90001 33.6004 5.90001C36.5004 4.80001 40.4004 4.20001 44.6004 4.20001C48.8004 4.20001 52.7004 4.80001 55.6004 5.90001C58.5004 7.00001 59.1004 8.00001 59.1004 8.30001C59.1004 8.60001 58.5004 9.70001 55.6004 10.7C52.7004 11.8 48.8004 12.4 44.6004 12.4C40.4004 12.4 36.5004 11.8 33.6004 10.7C30.9004 9.80001 30.2004 8.70001 30.1004 8.30001ZM30.1004 13.7C30.7004 14 31.4004 14.3 32.2004 14.6C35.5004 15.8 40.0004 16.5 44.6004 16.5C49.2004 16.5 53.7004 15.8 57.0004 14.6C57.8004 14.3 58.5004 14 59.1004 13.7V16.3C59.1004 16.6 58.5004 17.7 55.6004 18.7C52.7004 19.8 48.8004 20.4 44.6004 20.4C40.4004 20.4 36.5004 19.8 33.6004 18.7C30.8004 17.7 30.1004 16.6 30.1004 16.3V13.7ZM30.1004 21.7C30.7004 22 31.4004 22.3 32.2004 22.6C35.5004 23.8 40.0004 24.5 44.6004 24.5C49.2004 24.5 53.7004 23.8 57.0004 22.6C57.8004 22.3 58.5004 22 59.1004 21.7V24.3C59.1004 24.6 58.5004 25.7 55.6004 26.7C52.7004 27.8 48.8004 28.4 44.6004 28.4C40.4004 28.4 36.5004 27.8 33.6004 26.7C30.8004 25.7 30.1004 24.6 30.1004 24.3V21.7ZM41.7004 55.7C41.7004 55.6 41.7004 55.6 41.7004 55.6C41.7004 55.6 41.7004 55.6 41.7004 55.5V52.4C42.7004 52.5 43.7004 52.5 44.7004 52.5C46.2004 52.5 47.7004 52.4 49.2004 52.3C49.4004 53.7 49.8004 55 50.3004 56.3C48.5004 56.5 46.7004 56.6 44.8004 56.6C43.8004 56.6 42.8004 56.6 41.8004 56.5V55.7H41.7004ZM52.5004 35.6C51.5004 37.1 50.8004 38.7 50.2004 40.3C48.4004 40.5 46.6004 40.6 44.7004 40.6C43.7004 40.6 42.7004 40.6 41.7004 40.5V39.5C41.7004 38.6 41.6004 37.4 41.0004 36.1C42.2004 36.2 43.4004 36.3 44.7004 36.3C47.4004 36.4 50.1004 36.1 52.5004 35.6ZM52.9004 48.3C52.9004 59 61.6004 67.7 72.3004 67.7C83.0004 67.7 91.7004 59 91.7004 48.3C91.7004 37.6 83.0004 28.9 72.3004 28.9C61.6004 28.9 52.9004 37.6 52.9004 48.3ZM72.2004 33.4C80.4004 33.4 87.1004 40.1 87.1004 48.3C87.1004 56.5 80.4004 63.2 72.2004 63.2C64.0004 63.2 57.3004 56.5 57.3004 48.3C57.3004 40.1 64.0004 33.4 72.2004 33.4Z" fill="black"/>
</svg>
