<svg width="796" height="836" viewBox="0 0 796 836" fill="none" xmlns="http://www.w3.org/2000/svg">
<g clip-path="url(#clip0_332_31)">
<path d="M457.159 836.01H338.829C314.139 836.01 293.52 818.29 289.81 793.87L279.23 724.34C278.73 721.07 276.52 718.25 273.46 716.97C247.86 706.29 223.66 692.29 201.5 675.35C198.79 673.28 195.29 672.78 192.14 674.01L126.58 699.62C103.58 708.62 77.9295 699.62 65.5795 678.23L6.40952 575.77C-5.91048 554.35 -0.870493 527.64 18.3995 512.24L73.3495 468.29C75.9495 466.22 77.2895 462.86 76.8595 459.51C75.0995 445.8 74.1995 431.82 74.1995 418C74.1995 404.28 75.0895 390.31 76.8395 376.49C77.2795 373.08 75.9695 369.81 73.3295 367.7L18.3995 323.76C-0.590492 308.6 -5.74049 281.29 6.41951 260.24L65.5895 157.76C77.9495 136.36 103.61 127.37 126.6 136.38L192.14 161.98C195.29 163.21 198.79 162.71 201.5 160.64C223.63 143.71 247.83 129.71 273.42 119.03C276.52 117.74 278.73 114.92 279.23 111.66L289.81 42.13C293.52 17.71 314.139 -0.0100098 338.829 -0.0100098H457.159C481.849 -0.0100098 502.47 17.71 506.18 42.13L516.76 111.65C517.26 114.92 519.47 117.74 522.53 119.02C548.13 129.7 572.33 143.7 594.49 160.64C597.16 162.69 600.739 163.2 603.849 161.98L669.409 136.37C692.389 127.37 718.05 136.37 730.4 157.75L789.57 260.25C801.74 281.27 796.59 308.59 777.57 323.77L722.64 367.71C720.01 369.81 718.7 373.09 719.13 376.49C720.88 390.12 721.77 404.1 721.77 418C721.77 432.01 720.88 446 719.13 459.57C718.71 462.91 720.02 466.19 722.64 468.29L777.59 512.24C796.89 527.65 801.94 554.37 789.58 575.78L730.409 678.25C718.049 699.65 692.39 708.63 669.4 699.63L603.859 674.03C600.709 672.8 597.21 673.29 594.52 675.36C572.37 692.3 548.17 706.3 522.58 716.98C519.48 718.27 517.27 721.09 516.77 724.35L506.19 793.88C502.47 818.29 481.849 836.01 457.159 836.01ZM195.53 633.39C206.31 633.39 217.03 636.87 225.79 643.57C245.22 658.42 266.429 670.7 288.829 680.04C304.709 686.63 316.2 701.31 318.78 718.33L329.359 787.85C330.079 792.58 334.06 796.01 338.84 796.01H457.169C461.939 796.01 465.93 792.58 466.65 787.85L477.229 718.33C479.809 701.32 491.3 686.64 507.21 680.04C529.6 670.7 550.8 658.43 570.21 643.59C583.88 633.12 602.349 630.5 618.409 636.76L683.979 662.37C688.439 664.11 693.39 662.37 695.78 658.23L754.95 555.76C757.34 551.62 756.37 546.46 752.63 543.48L697.659 499.52C684.059 488.65 677.25 471.81 679.45 454.48C680.99 442.56 681.77 430.3 681.77 417.99C681.77 405.78 680.99 393.52 679.45 381.54C677.25 364.18 684.059 347.34 697.659 336.46L752.609 292.51C756.299 289.57 757.3 284.31 754.96 280.26L695.78 177.75C693.39 173.62 688.43 171.87 683.99 173.62L618.419 199.23C602.359 205.5 583.88 202.88 570.2 192.4C550.79 177.56 529.58 165.29 507.18 155.94C491.3 149.35 479.809 134.67 477.229 117.65L466.65 48.14C465.93 43.41 461.939 39.98 457.169 39.98H338.829C334.059 39.98 330.07 43.41 329.35 48.14L318.77 117.66C316.19 134.67 304.7 149.35 288.79 155.95C266.4 165.29 245.19 177.56 225.79 192.4C211.89 203.03 193.87 205.58 177.59 199.23L112.02 173.62C107.56 171.87 102.61 173.62 100.21 177.76L41.0395 280.24C38.6895 284.3 39.6895 289.57 43.3595 292.5L98.3195 336.46C111.74 347.21 118.7 364.48 116.5 381.54C114.96 393.66 114.18 405.94 114.18 417.99C114.18 430.11 114.97 442.38 116.52 454.44C118.69 471.58 111.7 488.85 98.2895 499.54L43.3695 543.47C39.6395 546.45 38.6595 551.63 41.0495 555.79L100.2 658.23C102.59 662.37 107.55 664.11 111.99 662.37L177.56 636.75C183.36 634.49 189.45 633.39 195.53 633.39Z" fill="black"/>
<path d="M397.999 578.22C309.649 578.22 237.779 506.35 237.779 418C237.779 329.65 309.649 257.78 397.999 257.78C486.349 257.78 558.219 329.65 558.219 418C558.219 506.35 486.349 578.22 397.999 578.22ZM397.999 297.78C331.709 297.78 277.779 351.71 277.779 418C277.779 484.29 331.709 538.22 397.999 538.22C464.289 538.22 518.219 484.29 518.219 418C518.219 351.71 464.289 297.78 397.999 297.78Z" fill="black"/>
</g>
<defs>
<clipPath id="clip0_332_31">
<rect width="796" height="836" fill="white"/>
</clipPath>
</defs>
</svg>
