<svg width="86" height="85" viewBox="0 0 86 85" fill="none" xmlns="http://www.w3.org/2000/svg">
<path d="M74.2 23.4544L85.1 12.6416C85.6 12.1456 85.7 11.352 85.5 10.7568C85.2 10.1616 84.6 9.6656 83.9 9.6656L76.1 9.7648L76.2 2.0272C76.2 1.3328 75.8 0.638397 75.1 0.439997C74.4 0.142397 73.7 0.340797 73.2 0.836797L62.3 11.6496C62 11.9472 61.8 12.4432 61.8 12.84L61.7 21.6688L56.9 26.4304L56.5 26.728L53.1 30.1008L50.6 32.5808L47.2 35.9536L44.7 38.4336L41.3 41.8064L38.8 44.2864L34.2 48.8496C33.5 49.544 33.5 50.6352 34.2 51.3296C34.5 51.6272 35 51.8256 35.4 51.8256C35.8 51.8256 36.3 51.6272 36.6 51.3296L41.2 46.7664L43.7 44.2864L47.1 40.9136L53 35.0608L55.5 32.5808L64 24.1488L72.9 24.0496C73.5 23.9504 73.9 23.8512 74.2 23.4544ZM65.2 20.5776L65.3 13.5344L72.7 6.1936V11.4512C72.7 11.9472 72.9 12.344 73.2 12.6416C73.5 12.9392 74 13.1376 74.4 13.1376H79.7L72.3 20.4784L65.2 20.5776Z" fill="black"/>
<path d="M55.8 24.1488C56.6 23.3552 56.5 22.1648 55.6 21.4704C50 17.6016 43.2 15.32 35.9 15.2208C16.6 15.0224 0.500008 30.696 0.400008 49.8416C0.300008 69.1856 16.1 84.8592 35.5 84.8592C55.1 84.8592 70.8 69.0864 70.6 49.6432C70.5 42.4016 68.2 35.656 64.3 30.1008C63.7 29.208 62.4 29.1088 61.6 29.9024C61 30.4976 60.9 31.3904 61.4 32.0848C65 37.2432 67.1 43.4928 67.1 50.2384C67 67.4992 52.7 81.4864 35.2 81.3872C18 81.288 4.00001 67.4 3.90001 50.3376C3.80001 33.0768 17.9 18.8912 35.3 18.6928C42.1 18.5936 48.4 20.776 53.6 24.3472C54.2 24.8432 55.2 24.744 55.8 24.1488Z" fill="black"/>
<path d="M49.8 30.1008C50.6 29.3072 50.4 28.0176 49.5 27.4224C45.5 24.9424 40.8 23.5536 35.7 23.4544C21.2 23.3552 9 35.16 8.7 49.544C8.4 64.6224 20.8 76.9232 36 76.6256C50.5 76.328 62.2 64.6224 62.3 50.2384C62.3 45.08 60.9 40.3184 58.3 36.152C57.7 35.16 56.4 35.0608 55.6 35.8544C55 36.4496 54.9 37.3424 55.4 38.0368C57.7 41.7072 59 46.1712 58.8 50.8336C58.4 63.1344 48.3 72.9552 35.9 73.2528C22.7 73.5504 11.9 62.7376 12.1 49.6432C12.3 37.3424 22.3 27.3232 34.7 26.9264C39.4 26.8272 43.9 28.0176 47.6 30.2992C48.3 30.7952 49.2 30.696 49.8 30.1008Z" fill="black"/>
<path d="M43.7 36.152C44.6 35.2592 44.3 33.8704 43.2 33.3744C40.9 32.2832 38.4 31.688 35.7 31.688C25.8 31.5888 17.3 39.624 17 49.4448C16.6 60.0592 25.4 68.7888 36.1 68.392C46 68.0944 54.1 59.6624 54 49.8416C54 47.1632 53.4 44.6832 52.3 42.4016C51.8 41.3104 50.3 41.0128 49.5 41.9056C49 42.4016 48.8 43.1952 49.2 43.8896C50.1 45.7744 50.6 47.9568 50.6 50.2384C50.5 58.2736 43.9 64.92 35.8 65.0192C27.4 65.1184 20.5 58.2736 20.6 49.9408C20.7 41.9056 27.4 35.3584 35.5 35.2592C37.8 35.2592 39.9 35.7552 41.9 36.648C42.4 36.8464 43.2 36.648 43.7 36.152Z" fill="black"/>
<path d="M35.4 43.3936C35.5 43.3936 35.5 43.3936 35.6 43.3936C36.1 43.3936 36.6 43.1952 36.9 42.8976C38 41.8064 37.3 40.0208 35.7 39.9216C35.6 39.9216 35.5 39.9216 35.4 39.9216C29.6 39.9216 25 44.6832 25.2 50.4368C25.4 55.6944 29.7 59.96 35 60.1584C40.8 60.3568 45.6 55.7936 45.6 50.04C45.6 49.9408 45.6 49.8416 45.6 49.7424C45.6 48.2544 43.7 47.4608 42.6 48.552C42.3 48.8496 42.1 49.3456 42.1 49.8416C42.1 49.9408 42.1 49.9408 42.1 50.04C42.1 53.6112 39.2 56.488 35.6 56.5872C31.7 56.6864 28.6 53.512 28.7 49.7424C28.9 46.2704 31.8 43.3936 35.4 43.3936Z" fill="black"/>
</svg>
